<?xml version="1.0" encoding="UTF-8"?><svg id="uuid-8990e070-d23d-4e63-96c6-5104ae70ce1a" xmlns="http://www.w3.org/2000/svg" viewBox="0 0 230.81 248.91"><defs><style>.uuid-470f2307-c6ce-44c0-9bf9-1f0b479bfff4{fill:#ffea00;}.uuid-949a20d6-e863-4323-965d-ac64ef0552db{fill:#333;fill-rule:evenodd;}</style></defs><g id="uuid-ac3b0c8b-3e6e-45a8-9995-4f4fa68efc52"><g id="uuid-c4df22ea-a74b-4185-9efa-cb19d56efbb1"><g><path class="uuid-470f2307-c6ce-44c0-9bf9-1f0b479bfff4" d="M202.35,41.39L143.87,7.63c-17.61-10.17-39.31-10.17-56.93,0L28.46,41.39C10.85,51.56,0,70.35,0,90.69v67.52c0,20.34,10.85,39.13,28.46,49.3l58.48,33.76c17.61,10.17,39.31,10.17,56.93,0l58.48-33.76c17.61-10.17,28.46-28.96,28.46-49.3V90.69c0-20.34-10.85-39.13-28.46-49.3Z"/><path class="uuid-949a20d6-e863-4323-965d-ac64ef0552db" d="M119.16,181.18l-49.18-22.54c-5.05-2.31-7.27-8.28-4.95-13.33l33.29-72.62c2.31-5.05,8.28-7.27,13.33-4.95l49.18,22.54c5.05,2.31,7.27,8.28,4.95,13.33l-33.29,72.62c-2.31,5.05-8.28,7.27-13.33,4.95Z"/></g></g></g></svg>
